<svg xmlns="http://www.w3.org/2000/svg" width="95.477" height="59.501" viewBox="0 0 95.477 59.501">
  <g id="Group_12" data-name="Group 12" transform="translate(-635 -11)">
    <g id="Group_5" data-name="Group 5" transform="translate(650.738 11)">
      <text id="SZ" transform="translate(12.262 29)" font-size="29" font-family="Nunito-Black, Nunito" font-weight="800"><tspan x="0" y="0">SZ</tspan></text>
      <text id="FOOD" transform="translate(0.262 50)" font-size="22" font-family="Nunito-Bold, Nunito" font-weight="700"><tspan x="0" y="0">FOOD</tspan></text>
    </g>
    <g id="Group_11" data-name="Group 11">
      <g id="fork" transform="translate(635 15.497)">
        <g id="Group_1" data-name="Group 1" transform="translate(0 0)">
          <path id="Path_1" data-name="Path 1" d="M201.055,191.6l-.4,11.568h3.5l-.4-11.568A8.592,8.592,0,0,1,201.055,191.6Z" transform="translate(-194.424 -166.838)" fill="#ff9d33"/>
          <path id="Path_2" data-name="Path 2" d="M197.539,270h-3.373l-.814,17.447v.168a2.5,2.5,0,1,0,5-.142Z" transform="translate(-187.885 -235.106)" fill="#ff9d33"/>
          <path id="Path_3" data-name="Path 3" d="M166.651.3a.272.272,0,0,0-.065-.168.013.013,0,0,0-.013-.013.309.309,0,0,0-.181-.065.277.277,0,0,0-.258.246l-.646,10.365A1.311,1.311,0,0,1,164.2,11.89h-2.934a1.322,1.322,0,0,1-1.292-1.241L159.323.271A.291.291,0,0,0,159.065,0h-.039a.291.291,0,0,0-.258.271l-.659,10.391a1.311,1.311,0,0,1-1.292,1.228h-2.947a1.311,1.311,0,0,1-1.292-1.228L151.931.3a.266.266,0,0,0-.258-.246.248.248,0,0,0-.258.246l-.362,10.287c0,5.053,2.6,9.913,6.035,11.321a5.04,5.04,0,0,0,3.877,0c3.438-1.4,6.035-6.268,6.048-11.321Z" transform="translate(-151.052 0)" fill="#ff9d33"/>
        </g>
      </g>
    </g>
    <g id="spoon" transform="translate(715.189 15.497)">
      <g id="Group_4" data-name="Group 4" transform="translate(0)">
        <g id="Group_3" data-name="Group 3" transform="translate(0)">
          <path id="Path_4" data-name="Path 4" d="M184.819,183.4a7.726,7.726,0,0,1-2.111,0l-1.256,26.947v.152a2.325,2.325,0,0,0,4,1.587,2.254,2.254,0,0,0,.621-1.711Z" transform="translate(-176.126 -158.095)" fill="#ff9d33"/>
          <path id="Path_5" data-name="Path 5" d="M155.753,3.132a5.978,5.978,0,0,0-10.514,0,14.274,14.274,0,0,0-2.387,8.182c0,5.174,2.373,9.672,5.781,10.969a5.251,5.251,0,0,0,3.725,0c3.408-1.3,5.781-5.8,5.781-10.969A14.14,14.14,0,0,0,155.753,3.132Z" transform="translate(-142.852)" fill="#ff9d33"/>
        </g>
      </g>
    </g>
  </g>
</svg>
